<svg xmlns="http://www.w3.org/2000/svg" width="16" height="19" fill="none"><path fill="#757575" d="M12.375 5.875V4.75c0-2.46-2.04-4.5-4.5-4.5-2.496 0-4.5 2.04-4.5 4.5v1.125H0v9.563a2.777 2.777 0 0 0 2.813 2.812h10.124a2.798 2.798 0 0 0 2.813-2.813V5.876h-3.375ZM5.625 4.75c0-1.23.984-2.25 2.25-2.25 1.23 0 2.25 1.02 2.25 2.25v1.125h-4.5V4.75Zm5.625 4.219c-.492 0-.844-.352-.844-.844 0-.457.352-.844.844-.844.457 0 .844.387.844.844a.833.833 0 0 1-.844.844Zm-6.75 0c-.492 0-.844-.352-.844-.844 0-.457.352-.844.844-.844.457 0 .844.387.844.844a.833.833 0 0 1-.844.844Z"/></svg>