<svg xmlns="http://www.w3.org/2000/svg" width="24" height="15" fill="none"><path fill="#F17228" d="M19 5c-.492 0-1.02.105-1.477.246l-1.16-1.934h2.918a.833.833 0 0 0 .844-.843V1.344A.855.855 0 0 0 19.281.5h-1.617a.88.88 0 0 0-.633.281l-1.3 1.477-.81-1.336A.844.844 0 0 0 14.22.5h-2.813a.578.578 0 0 0-.562.563v.562c0 .316.246.563.562.563h2.32l.668 1.124H8.98c-.597-.808-1.546-1.406-3.48-1.406H3.531c-.457 0-.879.387-.844.88 0 .456.352.808.844.808H5.5c.844 0 1.336.386 1.652.879l-.386.738c-.457-.14-.95-.211-1.442-.176-2.39.07-4.289 2.004-4.324 4.36C.93 11.96 2.969 14 5.5 14c2.074 0 3.832-1.406 4.36-3.375h2.953c.457 0 .843-.387.843-.879a5.334 5.334 0 0 1 1.969-4.394l.422.738c-.95.844-1.582 2.074-1.547 3.445 0 2.461 2.004 4.465 4.43 4.465 2.53.035 4.57-2.004 4.57-4.535C23.465 7.039 21.46 5.035 19 5ZM5.5 12.313A2.777 2.777 0 0 1 2.687 9.5 2.798 2.798 0 0 1 5.5 6.687c.14 0 .281.036.422.036L4.48 9.395c-.316.562.07 1.23.739 1.23h2.847c-.457 1.02-1.441 1.688-2.566 1.688Zm16.277-2.637a2.807 2.807 0 0 1-2.636 2.636c-1.618.106-2.953-1.195-2.953-2.812 0-.738.28-1.406.773-1.934l1.723 2.918c.175.246.492.352.773.176l.492-.281a.556.556 0 0 0 .176-.774l-1.688-2.847c.176-.035.352-.035.563-.035 1.582-.035 2.883 1.336 2.777 2.953Z"/></svg>