<svg xmlns="http://www.w3.org/2000/svg" width="19" height="19" fill="none"><path fill="#FFB30E" d="m17.754 15.824-3.516-3.515c-.175-.141-.386-.246-.597-.246h-.563a7.33 7.33 0 0 0 1.547-4.5C14.625 3.554 11.32.25 7.312.25 3.27.25 0 3.555 0 7.563a7.307 7.307 0 0 0 7.313 7.312 7.266 7.266 0 0 0 4.5-1.547v.598c0 .21.07.422.246.597l3.48 3.48c.352.352.879.352 1.195 0l.985-.983c.351-.317.351-.844.035-1.196ZM7.312 12.063a4.486 4.486 0 0 1-4.5-4.5c0-2.461 2.004-4.5 4.5-4.5 2.461 0 4.5 2.039 4.5 4.5 0 2.496-2.039 4.5-4.5 4.5Z"/></svg>