<svg xmlns="http://www.w3.org/2000/svg" width="16" height="19" fill="none"><path fill="url(#a)" d="M8 9.25c2.46 0 4.5-2.004 4.5-4.5 0-2.46-2.04-4.5-4.5-4.5-2.496 0-4.5 2.04-4.5 4.5 0 2.496 2.004 4.5 4.5 4.5Zm3.129 1.125h-.598c-.773.387-1.617.563-2.531.563-.914 0-1.793-.176-2.566-.563h-.598c-2.602 0-4.711 2.145-4.711 4.746v1.441c0 .95.738 1.688 1.688 1.688h12.374c.915 0 1.688-.738 1.688-1.688v-1.44c0-2.602-2.145-4.747-4.746-4.747Z"/><defs><linearGradient id="a" x1="-7.028" x2="23.903" y1="-22.35" y2="-20.985" gradientUnits="userSpaceOnUse"><stop stop-color="#FFB800"/><stop offset="1" stop-color="#FF8A00"/></linearGradient></defs></svg>